HIERARCHY
ROOT Hips
{
  OFFSET 0 89.5177 0.535
  CHANNELS 6 Xposition Yposition Zposition Zrotation Xrotation Yrotation
  JOINT Spine
  {
    OFFSET 12.0259 -0.162855 1.69034e-005
    CHANNELS 3 Zrotation Xrotation Yrotation
    JOINT Spine1
    {
      OFFSET 15.3169 -0.0121922 0
      CHANNELS 3 Zrotation Xrotation Yrotation
      JOINT Spine2
      {
        OFFSET 15.3176 -0.0121908 0
        CHANNELS 3 Zrotation Xrotation Yrotation
        JOINT Neck
        {
          OFFSET 19.9142 1.56338 0
          CHANNELS 3 Zrotation Xrotation Yrotation
          JOINT Head
          {
            OFFSET 6.92651 0 0
            CHANNELS 3 Zrotation Xrotation Yrotation
            End Site
            {
              OFFSET 20.7666 0 0
            }
          }
          JOINT LeftShoulder
          {
            OFFSET -6.20654 0.708824 7.28219
            CHANNELS 3 Zrotation Xrotation Yrotation
            JOINT LeftArm
            {
              OFFSET 14.108 0 -1.52588e-005
              CHANNELS 3 Zrotation Xrotation Yrotation
              JOINT LeftForeArm
              {
                OFFSET 28.5802 0 0
                CHANNELS 3 Zrotation Xrotation Yrotation
                JOINT LeftHand
                {
                  OFFSET 27.092 0 0
                  CHANNELS 3 Zrotation Xrotation Yrotation
                  End Site
                  {
                    OFFSET 9.55928 -0.186424 0.145352
                  }
                }
              }
            }
          }
          JOINT RightShoulder
          {
            OFFSET -6.20654 0.708866 -7.28218
            CHANNELS 3 Zrotation Xrotation Yrotation
            JOINT RightArm
            {
              OFFSET 14.108 0 1.52588e-005
              CHANNELS 3 Zrotation Xrotation Yrotation
              JOINT RightForeArm
              {
                OFFSET 28.5802 0 0
                CHANNELS 3 Zrotation Xrotation Yrotation
                JOINT RightHand
                {
                  OFFSET 27.092 0 0
                  CHANNELS 3 Zrotation Xrotation Yrotation
                  End Site
                  {
                    OFFSET 9.55929 -0.186417 -0.145354
                  }
                }
              }
            }
          }
        }
      }
    }
  }
  JOINT LeftUpLeg
  {
    OFFSET 0.005 -0.535 8.837
    CHANNELS 3 Zrotation Xrotation Yrotation
    JOINT LeftLeg
    {
      OFFSET 39.9035 0 0
      CHANNELS 3 Zrotation Xrotation Yrotation
      JOINT LeftFoot
      {
        OFFSET 39.6689 0 0
        CHANNELS 3 Zrotation Xrotation Yrotation
        JOINT LeftToe
        {
          OFFSET 10.1624 13.6296 0
          CHANNELS 3 Zrotation Xrotation Yrotation
          End Site
          {
            OFFSET 8.38147 0 0
          }
        }
      }
    }
  }
  JOINT RightUpLeg
  {
    OFFSET 0.005 -0.535 -8.837
    CHANNELS 3 Zrotation Xrotation Yrotation
    JOINT RightLeg
    {
      OFFSET 39.9035 0 0
      CHANNELS 3 Zrotation Xrotation Yrotation
      JOINT RightFoot
      {
        OFFSET 39.6689 0 0
        CHANNELS 3 Zrotation Xrotation Yrotation
        JOINT RightToe
        {
          OFFSET 10.1624 13.6296 0
          CHANNELS 3 Zrotation Xrotation Yrotation
          End Site
          {
            OFFSET 8.38147 0 0
          }
        }
      }
    }
  }
}
MOTION
Frames:	9
Frame Time:	0.0333333
398.191 86.4356 -68.5377 130.323 -86.1127 44.2184 1.62233 1.78971 -1.75655 3.30117 3.52857 -3.56551 3.30117 3.52857 -3.56552 -8.30748e-012 -9.0191e-006 -5.27751e-005 34.7765 44.1279 -34.6052 -171.271 -26.2429 -70.8512 -35.8456 9.4035 40.4595 -57.1775 -3.97569e-015 -1.59028e-015 -39.5444 -60.4277 -44.5191 -176.739 14.7649 77.4 -59.0665 -12.5611 -58.5879 -51.1642 4.77083e-015 -0 -79.0108 69.0757 83.2198 -14.6576 9.74785 179.406 -28.2465 3.18055e-015 1.19271e-015 15.7076 3.5611 -1.2846 90 -1.47869e-020 3.18055e-015 -13.9389 -23.1106 158.024 -36.1319 -6.36111e-015 -1.59028e-015 20.2611 6.22308 -3.57464 90 -7.95139e-016 -0 
397.651 86.6066 -68.9596 137.846 -87.0837 51.1476 1.67977 1.72873 -1.71797 3.41293 3.40601 -3.4881 3.41293 3.40601 -3.48811 -8.30907e-012 -9.0191e-006 -5.27751e-005 36.0674 46.3728 -36.4258 -171.559 -26.0227 -71.3111 -37.1275 8.27137 40.5645 -55.8619 0 2.38542e-015 -39.68 -60.3353 -44.6597 -176.788 14.4672 77.3418 -57.9874 -11.6925 -59.3209 -48.4433 0 -6.36111e-015 -78.1584 69.0921 82.2984 -13.6206 10.2306 179.684 -27.7453 -4.77083e-015 -7.95139e-016 15.9411 3.2031 -0.955603 90 -2.23699e-020 -0 -15.4335 -23.4393 158.099 -38.3804 3.18056e-015 -4.77083e-015 19.1006 8.25617 -6.44568 90 3.18055e-015 -9.54166e-015 
397.153 86.7747 -69.4764 141.218 -88.0308 53.9899 1.7814 1.63292 -1.68093 3.6121 3.21254 -3.41372 3.61211 3.21254 -3.41373 -8.31225e-012 -9.0191e-006 -5.27751e-005 37.0081 47.8434 -37.7811 -171.848 -25.8 -71.7819 -38.6386 7.47743 40.7369 -54.5166 0 -3.18055e-015 -39.799 -60.1947 -44.7784 -176.817 14.1706 77.2028 -57.018 -10.8708 -60.0317 -45.1385 -6.36111e-015 -9.54166e-015 -76.8966 69.1232 80.9339 -12.2416 10.6914 179.902 -27.1381 -1.59028e-015 7.95139e-016 16.1429 3.07499 -0.670183 90 1.55452e-020 -0 -16.6392 -24.6632 157.953 -40.0832 3.18056e-015 -0 17.9327 10.1551 -9.27363 90 -6.36111e-015 -6.36111e-015 
396.73 86.9118 -70.0169 146.939 -88.8617 59.1984 1.87551 1.54563 -1.63779 3.79647 3.03665 -3.32694 3.79647 3.03665 -3.32695 -8.30589e-012 -9.0191e-006 -5.27751e-005 37.3103 48.4464 -38.4373 -172.127 -25.4892 -72.1858 -40.1905 6.99539 40.9403 -53.3891 -6.36111e-015 -1.59028e-015 -39.9525 -60.0008 -44.9299 -176.83 13.9257 77.0415 -56.0438 -10.1188 -60.6406 -41.5607 -3.18055e-015 -0 -75.5336 69.0269 79.4718 -10.9595 11.3616 -179.818 -26.6282 -1.59028e-015 -1.19271e-015 16.4008 3.22408 -0.439508 90 -7.58303e-021 1.59028e-015 -17.4409 -26.0172 157.892 -41.0378 3.18056e-015 -0 17.0196 11.1209 -10.8183 90 -1.59028e-015 -3.18055e-015 
396.408 87.0335 -70.4785 -175.208 -89.1664 96.4154 1.87745 1.48438 -1.5717 3.79679 2.91637 -3.19263 3.79679 2.91637 -3.19264 -8.30748e-012 -9.0191e-006 -5.27751e-005 37.2161 48.7436 -38.7285 -172.321 -25.3066 -72.4936 -41.8614 6.67657 41.2844 -52.3863 -6.36111e-015 4.77083e-015 -40.3389 -59.6479 -45.3218 -176.823 13.707 76.8174 -54.8743 -9.46224 -61.1009 -38.019 6.36111e-015 6.36111e-015 -74.1735 68.9297 78.0113 -10.3348 12.0362 -179.319 -26.2837 1.59028e-015 -0 16.6679 3.31576 -0.287147 90 -1.17537e-020 4.77083e-015 -17.6076 -26.2797 158.713 -41.0672 -6.36111e-015 -6.36111e-015 16.5538 10.176 -9.57138 90 -3.18055e-015 -6.36111e-015 
396.172 87.1053 -70.8527 -132.953 -88.5436 138.162 1.83625 1.4754 -1.53172 3.7131 2.90089 -3.11132 3.7131 2.90089 -3.11133 -8.30589e-012 -9.0191e-006 -5.27751e-005 36.9758 48.8986 -38.8096 -172.445 -25.177 -72.6842 -43.1953 6.28557 41.8615 -51.7147 -4.77083e-015 4.77083e-015 -40.229 -59.4699 -45.1851 -176.794 13.5092 76.5164 -53.42 -8.88325 -61.3542 -34.7319 -3.18055e-015 -0 -72.7177 68.9658 76.4367 -10.0864 12.8177 -178.866 -26.0931 -4.77083e-015 -1.59028e-015 16.9916 3.21981 -0.188581 90 1.51661e-020 1.59028e-015 -18.003 -25.4875 159.844 -41.2539 6.36111e-015 1.59028e-015 16.3081 9.15383 -8.2986 90 4.77083e-015 3.18055e-015 
396.022 87.1785 -71.2161 -117.833 -87.456 152.698 1.79735 1.47497 -1.4711 3.63376 2.90303 -2.98906 3.63376 2.90303 -2.98907 -8.31066e-012 -9.0191e-006 -5.27751e-005 36.8069 49.3105 -39.0044 -172.483 -25.1381 -72.7433 -44.2381 6.11166 42.5993 -51.459 1.59028e-015 1.59028e-015 -40.6467 -59.4365 -45.6407 -176.763 13.3088 76.1968 -51.875 -8.44873 -61.3966 -31.8486 -1.27222e-014 -6.36111e-015 -71.5432 68.9237 75.1719 -9.91843 13.5849 -178.276 -25.937 0 7.95139e-016 17.34 2.97585 -0.15579 90 -3.32794e-021 -1.59028e-015 -18.2158 -24.2235 161.383 -41.1351 -3.18056e-015 -3.18056e-015 16.0503 8.23209 -7.27603 90 1.59028e-015 -3.18055e-015 
395.909 87.2388 -71.5929 -112.316 -86.2818 157.702 1.7664 1.44485 -1.41277 3.56956 2.84548 -2.87061 3.56956 2.84548 -2.87062 -8.30748e-012 -9.0191e-006 -5.27751e-005 36.8388 49.8886 -39.3651 -172.425 -25.1643 -72.632 -44.9653 6.06872 43.4624 -51.4445 7.95139e-015 3.18055e-015 -40.7445 -59.3303 -45.7382 -176.752 13.156 75.9993 -50.1704 -7.86787 -61.4011 -29.2689 -3.18055e-015 -6.36111e-015 -70.2706 68.9411 73.7981 -9.77177 14.3538 -177.739 -25.7674 -1.59028e-015 -7.95139e-016 17.6826 2.72053 -0.149523 90 2.3697e-021 1.59028e-015 -18.4837 -22.91 162.908 -40.7377 0 -0 15.7812 7.33053 -6.3629 90 1.59028e-015 1.59028e-014 
395.833 87.2774 -72.0282 -109.89 -85.1486 159.708 1.73952 1.39195 -1.363 3.51319 2.74195 -2.76869 3.51319 2.74195 -2.7687 -8.30748e-012 -9.0191e-006 -5.27751e-005 36.9868 50.3382 -39.7028 -172.372 -25.1043 -72.4803 -45.6858 6.47842 44.2805 -51.5539 -6.36111e-015 3.18055e-015 -40.6284 -59.4246 -45.6197 -176.744 13.0332 75.8434 -48.4893 -7.40525 -61.3193 -27.2613 9.54166e-015 3.18055e-015 -69.4406 68.9827 72.9015 -9.58644 15.0545 -177.292 -25.5918 0 3.97569e-016 18.0587 2.45862 -0.176711 90 5.4977e-021 -1.59028e-015 -18.8945 -21.9312 164.23 -40.0428 0 -0 15.4322 6.2123 -5.18526 90 1.59028e-015 -6.36111e-015 
